<svg width="15" height="17" viewBox="0 0 15 17" fill="none" xmlns="http://www.w3.org/2000/svg">
<mask id="mask0_388_2228" style="mask-type:luminance" maskUnits="userSpaceOnUse" x="0" y="0" width="15" height="17">
<path d="M15 0H0V16.7647H15V0Z" fill="white"/>
</mask>
<g mask="url(#mask0_388_2228)">
<path d="M2.02109 16.7647H8.41083C8.5466 16.7686 8.68177 16.7451 8.80834 16.6956C8.93491 16.6461 9.05031 16.5715 9.14772 16.4764C9.24513 16.3812 9.32256 16.2674 9.37543 16.1416C9.42831 16.0158 9.45555 15.8807 9.45555 15.7442C9.45555 15.6076 9.42831 15.4725 9.37543 15.3467C9.32256 15.2209 9.24513 15.1071 9.14772 15.012C9.05031 14.9168 8.93491 14.8423 8.80834 14.7927C8.68177 14.7432 8.5466 14.7197 8.41083 14.7236H2.03027V2.04194H8.11732C8.38668 2.04172 8.64492 1.93394 8.83523 1.74231C9.02554 1.55069 9.13233 1.29091 9.1321 1.02013C9.13188 0.749354 9.02467 0.489755 8.83405 0.298443C8.64342 0.107131 8.38501 -0.000221969 8.11565 3.44599e-07H2.02109C1.75552 -0.000109815 1.49253 0.0523929 1.24715 0.154508C1.00177 0.256622 0.778818 0.406347 0.59103 0.595125C0.403241 0.783902 0.254301 1.00803 0.152721 1.2547C0.0511416 1.50137 -0.00108597 1.76575 -0.00097639 2.03272V14.7328C-0.000976413 14.9997 0.051332 15.264 0.152961 15.5106C0.254589 15.7572 0.403547 15.9812 0.591324 16.1699C0.779102 16.3586 1.00202 16.5082 1.24734 16.6103C1.49267 16.7123 1.75559 16.7648 2.02109 16.7647Z" fill="white"/>
<path d="M10.5098 4.2414C10.3059 4.41809 10.1801 4.66894 10.1601 4.93882C10.1401 5.20869 10.2274 5.47552 10.403 5.68065L11.8431 7.36131H4.20842C4.07265 7.3574 3.93748 7.3809 3.81091 7.43043C3.68434 7.47996 3.56893 7.5545 3.47153 7.64966C3.37412 7.74481 3.29669 7.85864 3.24381 7.98441C3.19094 8.11017 3.1637 8.24532 3.1637 8.38186C3.1637 8.5184 3.19094 8.65355 3.24381 8.77932C3.29669 8.90509 3.37412 9.01891 3.47153 9.11407C3.56893 9.20922 3.68434 9.28377 3.81091 9.33329C3.93748 9.38282 4.07265 9.40633 4.20842 9.40241H11.8422L10.4022 11.0831C10.3151 11.1848 10.2488 11.3028 10.207 11.4302C10.1652 11.5577 10.1489 11.6922 10.1588 11.8261C10.1688 11.9599 10.2049 12.0905 10.265 12.2103C10.3251 12.3301 10.4082 12.4369 10.5093 12.5244C10.6105 12.612 10.7279 12.6787 10.8547 12.7206C10.9815 12.7626 11.1153 12.7791 11.2484 12.7691C11.3816 12.7591 11.5115 12.7228 11.6307 12.6623C11.7498 12.6019 11.856 12.5184 11.9431 12.4167L14.6948 9.19789C14.8891 8.97119 14.996 8.68192 14.996 8.3827C14.996 8.08349 14.8891 7.79421 14.6948 7.56752L11.9431 4.34869C11.7674 4.14371 11.5178 4.01727 11.2494 3.99715C10.9809 3.97703 10.7155 4.06488 10.5114 4.2414" fill="white"/>
</g>
</svg>
